ffmpeg started on 2026-03-27 at 10:45:25
Report written to "D:\Convert\FFMetrics\reports\psnr_report-6.txt"
Log level: 32
Command line:
ffmpeg -hide_banner -nostdin -r 25/1 -i "F:\\Convert\\files\\FBS NF 124 (1080P AVC)_HEVC(72).mkv" -r 25/1 -i "F:\\Convert\\files\\FBS NF 124 (1080P AVC).mp4" -lavfi "[0:v]settb=AVTB,setpts=PTS-STARTPTS,format=pix_fmts=yuv420p10le,fps=25/1,scale=1920:804:flags=lanczos:param0=3:out_range=limited:out_color_matrix=bt709:out_chroma_loc=left,setsar=1/1,setdar=(1920/804)*(1/1),colorspace=format=yuv420p10:range=tv:primaries=bt709:trc=bt709:space=bt709:fast=0[main];[1:v]settb=AVTB,setpts=PTS-STARTPTS,format=pix_fmts=yuv420p,fps=25/1,scale=1920:804:flags=lanczos:param0=3:out_range=limited:out_color_matrix=bt709:out_chroma_loc=left,setsar=1/1,setdar=(1920/804)*(1/1),colorspace=format=yuv420p:range=tv:primaries=bt709:trc=bt709:space=bt709:fast=0[ref];[main][ref]psnr=eof_action=endall:stats_file='D\\:/Convert/FFMetrics/logs/psnr_logfile-6.txt'" -f null -
Input #0, matroska,webm, from 'F:\Convert\files\FBS NF 124 (1080P AVC)_HEVC(72).mkv':
  Metadata:
    COMPATIBLE_BRANDS: mp42mp41
    MAJOR_BRAND     : mp42
    MINOR_VERSION   : 0
    ENCODER         : Lavf61.7.100
  Duration: 00:22:02.88, start: -0.021000, bitrate: 3951 kb/s
  Stream #0:0(eng): Video: hevc (Main 10), yuv420p10le(tv, bt709, progressive), 1920x804 [SAR 1:1 DAR 160:67], 25 fps, 25 tbr, 1k tbn (default)
      Metadata:
        HANDLER_NAME    : Mainconcept Video Media Handler
        VENDOR_ID       : [0][0][0][0]
        ENCODER         : Lavc61.19.100 libx265
        BPS             : 3757431
        DURATION        : 00:22:02.840000000
        NUMBER_OF_FRAMES: 33071
        NUMBER_OF_BYTES : 621310158
        _STATISTICS_WRITING_APP: mkvpropedit v94.0 ('Initiate') 64-bit
        _STATISTICS_WRITING_DATE_UTC: 2026-03-27 07:08:04
        _STATISTICS_TAGS: BPS DURATION NUMBER_OF_FRAMES NUMBER_OF_BYTES
  Stream #0:1(eng): Audio: aac (LC), 48000 Hz, stereo, fltp (default)
      Metadata:
        HANDLER_NAME    : #Mainconcept MP4 Sound Media Handler
        VENDOR_ID       : [0][0][0][0]
        ENCODER         : Lavc61.19.100 aac
        BPS             : 189986
        DURATION        : 00:22:02.858000000
        NUMBER_OF_FRAMES: 62010
        NUMBER_OF_BYTES : 31415714
        _STATISTICS_WRITING_APP: mkvpropedit v94.0 ('Initiate') 64-bit
        _STATISTICS_WRITING_DATE_UTC: 2026-03-27 07:08:04
        _STATISTICS_TAGS: BPS DURATION NUMBER_OF_FRAMES NUMBER_OF_BYTES
Input #1, mov,mp4,m4a,3gp,3g2,mj2, from 'F:\Convert\files\FBS NF 124 (1080P AVC).mp4':
  Metadata:
    major_brand     : mp42
    minor_version   : 0
    compatible_brands: mp42mp41
    creation_time   : 2024-12-09T14:39:16.000000Z
  Duration: 00:22:02.84, start: 0.000000, bitrate: 5643 kb/s
  Stream #1:0[0x1](eng): Video: h264 (Main) (avc1 / 0x31637661), yuv420p(tv, bt709, progressive), 1920x804, 5513 kb/s, 25 fps, 25 tbr, 25k tbn (default)
      Metadata:
        creation_time   : 2024-12-09T14:39:16.000000Z
        handler_name    : Mainconcept Video Media Handler
        vendor_id       : [0][0][0][0]
        encoder         : AVC Coding
  Stream #1:1[0x2](eng): Audio: aac (LC) (mp4a / 0x6134706D), 48000 Hz, stereo, fltp, 125 kb/s (default)
      Metadata:
        creation_time   : 2024-12-09T14:39:16.000000Z
        handler_name    : #Mainconcept MP4 Sound Media Handler
        vendor_id       : [0][0][0][0]
Stream mapping:
  Stream #0:0 (hevc) -> settb:default
  Stream #1:0 (h264) -> settb:default
  psnr:default -> Stream #0:0 (wrapped_avframe)
  Stream #0:1 -> #0:1 (aac (native) -> pcm_s16le (native))
Output #0, null, to 'pipe:':
  Metadata:
    COMPATIBLE_BRANDS: mp42mp41
    MAJOR_BRAND     : mp42
    MINOR_VERSION   : 0
    encoder         : Lavf61.7.100
  Stream #0:0: Video: wrapped_avframe, yuv420p10le(tv, bt709, progressive), 1920x804 [SAR 2881:2880 DAR 43:18], q=2-31, 200 kb/s, 25 fps, 25 tbn
      Metadata:
        encoder         : Lavc61.19.100 wrapped_avframe
  Stream #0:1(eng): Audio: pcm_s16le, 48000 Hz, stereo, s16, 1536 kb/s (default)
      Metadata:
        HANDLER_NAME    : #Mainconcept MP4 Sound Media Handler
        VENDOR_ID       : [0][0][0][0]
        _STATISTICS_TAGS: BPS DURATION NUMBER_OF_FRAMES NUMBER_OF_BYTES
        BPS             : 189986
        DURATION        : 00:22:02.858000000
        NUMBER_OF_FRAMES: 62010
        NUMBER_OF_BYTES : 31415714
        _STATISTICS_WRITING_APP: mkvpropedit v94.0 ('Initiate') 64-bit
        _STATISTICS_WRITING_DATE_UTC: 2026-03-27 07:08:04
        encoder         : Lavc61.19.100 pcm_s16le
frame=  183 fps=0.0 q=-0.0 size=N/A time=00:00:07.32 bitrate=N/A speed=14.4x    frame=  286 fps=278 q=-0.0 size=N/A time=00:00:11.44 bitrate=N/A speed=11.1x    frame=  421 fps=274 q=-0.0 size=N/A time=00:00:16.84 bitrate=N/A speed=10.9x    frame=  603 fps=294 q=-0.0 size=N/A time=00:00:24.12 bitrate=N/A speed=11.8x    frame=  824 fps=320 q=-0.0 size=N/A time=00:00:32.96 bitrate=N/A speed=12.8x    frame= 1094 fps=355 q=-0.0 size=N/A time=00:00:43.76 bitrate=N/A speed=14.2x    frame= 1356 fps=377 q=-0.0 size=N/A time=00:00:54.24 bitrate=N/A speed=15.1x    frame= 1476 fps=359 q=-0.0 size=N/A time=00:00:59.04 bitrate=N/A speed=14.4x    frame= 1630 fps=352 q=-0.0 size=N/A time=00:01:05.20 bitrate=N/A speed=14.1x    frame= 1756 fps=341 q=-0.0 size=N/A time=00:01:10.24 bitrate=N/A speed=13.6x    frame= 1940 fps=343 q=-0.0 size=N/A time=00:01:17.60 bitrate=N/A speed=13.7x    frame= 2164 fps=350 q=-0.0 size=N/A time=00:01:26.56 bitrate=N/A speed=  14x    frame= 2344 fps=350 q=-0.0 size=N/A time=00:01:33.76 bitrate=N/A speed=  14x    frame= 2518 fps=349 q=-0.0 size=N/A time=00:01:40.72 bitrate=N/A speed=  14x    frame= 2662 fps=345 q=-0.0 size=N/A time=00:01:46.48 bitrate=N/A speed=13.8x    frame= 2831 fps=343 q=-0.0 size=N/A time=00:01:53.24 bitrate=N/A speed=13.7x    frame= 2993 fps=342 q=-0.0 size=N/A time=00:01:59.72 bitrate=N/A speed=13.7x    frame= 3124 fps=337 q=-0.0 size=N/A time=00:02:04.96 bitrate=N/A speed=13.5x    frame= 3275 fps=335 q=-0.0 size=N/A time=00:02:11.00 bitrate=N/A speed=13.4x    frame= 3463 fps=336 q=-0.0 size=N/A time=00:02:18.52 bitrate=N/A speed=13.4x    frame= 3704 fps=342 q=-0.0 size=N/A time=00:02:28.16 bitrate=N/A speed=13.7x    frame= 3826 fps=338 q=-0.0 size=N/A time=00:02:33.04 bitrate=N/A speed=13.5x    frame= 3950 fps=333 q=-0.0 size=N/A time=00:02:38.00 bitrate=N/A speed=13.3x    frame= 4076 fps=329 q=-0.0 size=N/A time=00:02:43.04 bitrate=N/A speed=13.2x    frame= 4207 fps=327 q=-0.0 size=N/A time=00:02:48.28 bitrate=N/A speed=13.1x    frame= 4335 fps=324 q=-0.0 size=N/A time=00:02:53.40 bitrate=N/A speed=12.9x    frame= 4468 fps=321 q=-0.0 size=N/A time=00:02:58.72 bitrate=N/A speed=12.9x    frame= 4603 fps=319 q=-0.0 size=N/A time=00:03:04.12 bitrate=N/A speed=12.8x    frame= 4722 fps=316 q=-0.0 size=N/A time=00:03:08.88 bitrate=N/A speed=12.6x    frame= 4853 fps=314 q=-0.0 size=N/A time=00:03:14.12 bitrate=N/A speed=12.6x    frame= 5061 fps=317 q=-0.0 size=N/A time=00:03:22.44 bitrate=N/A speed=12.7x    frame= 5261 fps=319 q=-0.0 size=N/A time=00:03:30.44 bitrate=N/A speed=12.8x    frame= 5400 fps=317 q=-0.0 size=N/A time=00:03:36.00 bitrate=N/A speed=12.7x    frame= 5554 fps=317 q=-0.0 size=N/A time=00:03:42.16 bitrate=N/A speed=12.7x    frame= 5669 fps=314 q=-0.0 size=N/A time=00:03:46.76 bitrate=N/A speed=12.6x    frame= 5778 fps=311 q=-0.0 size=N/A time=00:03:51.12 bitrate=N/A speed=12.5x    frame= 5942 fps=312 q=-0.0 size=N/A time=00:03:57.68 bitrate=N/A speed=12.5x    frame= 6110 fps=312 q=-0.0 size=N/A time=00:04:04.40 bitrate=N/A speed=12.5x    frame= 6283 fps=313 q=-0.0 size=N/A time=00:04:11.32 bitrate=N/A speed=12.5x    frame= 6486 fps=314 q=-0.0 size=N/A time=00:04:19.44 bitrate=N/A speed=12.6x    frame= 6662 fps=315 q=-0.0 size=N/A time=00:04:26.48 bitrate=N/A speed=12.6x    frame= 6814 fps=315 q=-0.0 size=N/A time=00:04:32.56 bitrate=N/A speed=12.6x    frame= 6984 fps=315 q=-0.0 size=N/A time=00:04:39.36 bitrate=N/A speed=12.6x    frame= 7156 fps=315 q=-0.0 size=N/A time=00:04:46.24 bitrate=N/A speed=12.6x    frame= 7303 fps=315 q=-0.0 size=N/A time=00:04:52.12 bitrate=N/A speed=12.6x    frame= 7491 fps=316 q=-0.0 size=N/A time=00:04:59.64 bitrate=N/A speed=12.6x    frame= 7707 fps=318 q=-0.0 size=N/A time=00:05:08.28 bitrate=N/A speed=12.7x    frame= 7891 fps=319 q=-0.0 size=N/A time=00:05:15.64 bitrate=N/A speed=12.8x    frame= 8064 fps=319 q=-0.0 size=N/A time=00:05:22.56 bitrate=N/A speed=12.8x    frame= 8173 fps=317 q=-0.0 size=N/A time=00:05:26.92 bitrate=N/A speed=12.7x    frame= 8344 fps=317 q=-0.0 size=N/A time=00:05:33.76 bitrate=N/A speed=12.7x    frame= 8513 fps=317 q=-0.0 size=N/A time=00:05:40.52 bitrate=N/A speed=12.7x    frame= 8669 fps=317 q=-0.0 size=N/A time=00:05:46.76 bitrate=N/A speed=12.7x    frame= 8804 fps=316 q=-0.0 size=N/A time=00:05:52.16 bitrate=N/A speed=12.6x    frame= 8997 fps=317 q=-0.0 size=N/A time=00:05:59.88 bitrate=N/A speed=12.7x    frame= 9190 fps=318 q=-0.0 size=N/A time=00:06:07.60 bitrate=N/A speed=12.7x    frame= 9379 fps=319 q=-0.0 size=N/A time=00:06:15.16 bitrate=N/A speed=12.8x    frame= 9527 fps=319 q=-0.0 size=N/A time=00:06:21.08 bitrate=N/A speed=12.7x    frame= 9728 fps=320 q=-0.0 size=N/A time=00:06:29.12 bitrate=N/A speed=12.8x    frame= 9930 fps=321 q=-0.0 size=N/A time=00:06:37.20 bitrate=N/A speed=12.8x    frame=10106 fps=321 q=-0.0 size=N/A time=00:06:44.24 bitrate=N/A speed=12.8x    frame=10244 fps=320 q=-0.0 size=N/A time=00:06:49.76 bitrate=N/A speed=12.8x    frame=10449 fps=322 q=-0.0 size=N/A time=00:06:57.96 bitrate=N/A speed=12.9x    frame=10613 fps=321 q=-0.0 size=N/A time=00:07:04.52 bitrate=N/A speed=12.9x    frame=10784 fps=322 q=-0.0 size=N/A time=00:07:11.36 bitrate=N/A speed=12.9x    frame=10957 fps=322 q=-0.0 size=N/A time=00:07:18.28 bitrate=N/A speed=12.9x    frame=11145 fps=322 q=-0.0 size=N/A time=00:07:25.80 bitrate=N/A speed=12.9x    frame=11297 fps=322 q=-0.0 size=N/A time=00:07:31.88 bitrate=N/A speed=12.9x    frame=11455 fps=322 q=-0.0 size=N/A time=00:07:38.20 bitrate=N/A speed=12.9x    frame=11614 fps=322 q=-0.0 size=N/A time=00:07:44.56 bitrate=N/A speed=12.9x    frame=11773 fps=321 q=-0.0 size=N/A time=00:07:50.92 bitrate=N/A speed=12.9x    frame=11959 fps=322 q=-0.0 size=N/A time=00:07:58.36 bitrate=N/A speed=12.9x    frame=12098 fps=321 q=-0.0 size=N/A time=00:08:03.92 bitrate=N/A speed=12.9x    frame=12263 fps=321 q=-0.0 size=N/A time=00:08:10.52 bitrate=N/A speed=12.9x    frame=12448 fps=322 q=-0.0 size=N/A time=00:08:17.92 bitrate=N/A speed=12.9x    frame=12636 fps=322 q=-0.0 size=N/A time=00:08:25.44 bitrate=N/A speed=12.9x    frame=12802 fps=322 q=-0.0 size=N/A time=00:08:32.08 bitrate=N/A speed=12.9x    frame=12981 fps=323 q=-0.0 size=N/A time=00:08:39.24 bitrate=N/A speed=12.9x    frame=13184 fps=324 q=-0.0 size=N/A time=00:08:47.36 bitrate=N/A speed=12.9x    frame=13354 fps=324 q=-0.0 size=N/A time=00:08:54.16 bitrate=N/A speed=12.9x    frame=13525 fps=324 q=-0.0 size=N/A time=00:09:01.00 bitrate=N/A speed=  13x    frame=13695 fps=324 q=-0.0 size=N/A time=00:09:07.80 bitrate=N/A speed=  13x    frame=13868 fps=324 q=-0.0 size=N/A time=00:09:14.72 bitrate=N/A speed=  13x    frame=14060 fps=325 q=-0.0 size=N/A time=00:09:22.40 bitrate=N/A speed=  13x    frame=14261 fps=325 q=-0.0 size=N/A time=00:09:30.44 bitrate=N/A speed=  13x    frame=14408 fps=325 q=-0.0 size=N/A time=00:09:36.32 bitrate=N/A speed=  13x    frame=14593 fps=325 q=-0.0 size=N/A time=00:09:43.72 bitrate=N/A speed=  13x    frame=14783 fps=326 q=-0.0 size=N/A time=00:09:51.32 bitrate=N/A speed=  13x    frame=14944 fps=325 q=-0.0 size=N/A time=00:09:57.76 bitrate=N/A speed=  13x    frame=15140 fps=326 q=-0.0 size=N/A time=00:10:05.60 bitrate=N/A speed=  13x    frame=15366 fps=327 q=-0.0 size=N/A time=00:10:14.64 bitrate=N/A speed=13.1x    frame=15523 fps=327 q=-0.0 size=N/A time=00:10:20.92 bitrate=N/A speed=13.1x    frame=15726 fps=328 q=-0.0 size=N/A time=00:10:29.04 bitrate=N/A speed=13.1x    frame=15933 fps=329 q=-0.0 size=N/A time=00:10:37.32 bitrate=N/A speed=13.1x    frame=16147 fps=330 q=-0.0 size=N/A time=00:10:45.88 bitrate=N/A speed=13.2x    frame=16347 fps=330 q=-0.0 size=N/A time=00:10:53.88 bitrate=N/A speed=13.2x    frame=16569 fps=331 q=-0.0 size=N/A time=00:11:02.76 bitrate=N/A speed=13.2x    frame=16738 fps=331 q=-0.0 size=N/A time=00:11:09.52 bitrate=N/A speed=13.2x    frame=16904 fps=331 q=-0.0 size=N/A time=00:11:16.16 bitrate=N/A speed=13.2x    frame=17085 fps=331 q=-0.0 size=N/A time=00:11:23.40 bitrate=N/A speed=13.2x    frame=17274 fps=332 q=-0.0 size=N/A time=00:11:30.96 bitrate=N/A speed=13.3x    frame=17450 fps=332 q=-0.0 size=N/A time=00:11:38.00 bitrate=N/A speed=13.3x    frame=17620 fps=332 q=-0.0 size=N/A time=00:11:44.80 bitrate=N/A speed=13.3x    frame=17802 fps=332 q=-0.0 size=N/A time=00:11:52.08 bitrate=N/A speed=13.3x    frame=18010 fps=332 q=-0.0 size=N/A time=00:12:00.40 bitrate=N/A speed=13.3x    frame=18122 fps=331 q=-0.0 size=N/A time=00:12:04.88 bitrate=N/A speed=13.3x    frame=18280 fps=331 q=-0.0 size=N/A time=00:12:11.20 bitrate=N/A speed=13.2x    frame=18486 fps=332 q=-0.0 size=N/A time=00:12:19.44 bitrate=N/A speed=13.3x    frame=18663 fps=332 q=-0.0 size=N/A time=00:12:26.52 bitrate=N/A speed=13.3x    frame=18857 fps=332 q=-0.0 size=N/A time=00:12:34.28 bitrate=N/A speed=13.3x    frame=19030 fps=332 q=-0.0 size=N/A time=00:12:41.20 bitrate=N/A speed=13.3x    frame=19193 fps=332 q=-0.0 size=N/A time=00:12:47.72 bitrate=N/A speed=13.3x    frame=19402 fps=333 q=-0.0 size=N/A time=00:12:56.08 bitrate=N/A speed=13.3x    frame=19626 fps=334 q=-0.0 size=N/A time=00:13:05.04 bitrate=N/A speed=13.4x    frame=19845 fps=335 q=-0.0 size=N/A time=00:13:13.80 bitrate=N/A speed=13.4x    frame=20024 fps=335 q=-0.0 size=N/A time=00:13:20.96 bitrate=N/A speed=13.4x    frame=20217 fps=335 q=-0.0 size=N/A time=00:13:28.68 bitrate=N/A speed=13.4x    frame=20436 fps=336 q=-0.0 size=N/A time=00:13:37.44 bitrate=N/A speed=13.4x    frame=20590 fps=335 q=-0.0 size=N/A time=00:13:43.60 bitrate=N/A speed=13.4x    frame=20797 fps=336 q=-0.0 size=N/A time=00:13:51.88 bitrate=N/A speed=13.4x    frame=21009 fps=337 q=-0.0 size=N/A time=00:14:00.36 bitrate=N/A speed=13.5x    frame=21189 fps=337 q=-0.0 size=N/A time=00:14:07.56 bitrate=N/A speed=13.5x    frame=21364 fps=337 q=-0.0 size=N/A time=00:14:14.56 bitrate=N/A speed=13.5x    frame=21541 fps=337 q=-0.0 size=N/A time=00:14:21.64 bitrate=N/A speed=13.5x    frame=21731 fps=337 q=-0.0 size=N/A time=00:14:29.24 bitrate=N/A speed=13.5x    frame=21946 fps=338 q=-0.0 size=N/A time=00:14:37.84 bitrate=N/A speed=13.5x    frame=22159 fps=338 q=-0.0 size=N/A time=00:14:46.36 bitrate=N/A speed=13.5x    frame=22375 fps=339 q=-0.0 size=N/A time=00:14:55.00 bitrate=N/A speed=13.5x    frame=22582 fps=339 q=-0.0 size=N/A time=00:15:03.28 bitrate=N/A speed=13.6x    frame=22761 fps=339 q=-0.0 size=N/A time=00:15:10.44 bitrate=N/A speed=13.6x    frame=22971 fps=340 q=-0.0 size=N/A time=00:15:18.84 bitrate=N/A speed=13.6x    frame=23158 fps=340 q=-0.0 size=N/A time=00:15:26.32 bitrate=N/A speed=13.6x    frame=23293 fps=339 q=-0.0 size=N/A time=00:15:31.72 bitrate=N/A speed=13.6x    frame=23445 fps=339 q=-0.0 size=N/A time=00:15:37.80 bitrate=N/A speed=13.6x    frame=23619 fps=339 q=-0.0 size=N/A time=00:15:44.76 bitrate=N/A speed=13.6x    frame=23788 fps=339 q=-0.0 size=N/A time=00:15:51.52 bitrate=N/A speed=13.6x    frame=23984 fps=339 q=-0.0 size=N/A time=00:15:59.36 bitrate=N/A speed=13.6x    frame=24154 fps=339 q=-0.0 size=N/A time=00:16:06.16 bitrate=N/A speed=13.6x    frame=24340 fps=339 q=-0.0 size=N/A time=00:16:13.60 bitrate=N/A speed=13.6x    frame=24541 fps=340 q=-0.0 size=N/A time=00:16:21.64 bitrate=N/A speed=13.6x    frame=24721 fps=340 q=-0.0 size=N/A time=00:16:28.84 bitrate=N/A speed=13.6x    frame=24905 fps=340 q=-0.0 size=N/A time=00:16:36.20 bitrate=N/A speed=13.6x    frame=25092 fps=340 q=-0.0 size=N/A time=00:16:43.68 bitrate=N/A speed=13.6x    frame=25311 fps=341 q=-0.0 size=N/A time=00:16:52.44 bitrate=N/A speed=13.6x    frame=25461 fps=340 q=-0.0 size=N/A time=00:16:58.44 bitrate=N/A speed=13.6x    frame=25645 fps=340 q=-0.0 size=N/A time=00:17:05.80 bitrate=N/A speed=13.6x    frame=25804 fps=340 q=-0.0 size=N/A time=00:17:12.16 bitrate=N/A speed=13.6x    frame=25975 fps=340 q=-0.0 size=N/A time=00:17:19.00 bitrate=N/A speed=13.6x    frame=26181 fps=340 q=-0.0 size=N/A time=00:17:27.24 bitrate=N/A speed=13.6x    frame=26361 fps=341 q=-0.0 size=N/A time=00:17:34.44 bitrate=N/A speed=13.6x    frame=26532 fps=340 q=-0.0 size=N/A time=00:17:41.28 bitrate=N/A speed=13.6x    frame=26684 fps=340 q=-0.0 size=N/A time=00:17:47.36 bitrate=N/A speed=13.6x    frame=26873 fps=340 q=-0.0 size=N/A time=00:17:54.92 bitrate=N/A speed=13.6x    frame=27076 fps=341 q=-0.0 size=N/A time=00:18:03.04 bitrate=N/A speed=13.6x    frame=27307 fps=341 q=-0.0 size=N/A time=00:18:12.28 bitrate=N/A speed=13.7x    frame=27523 fps=342 q=-0.0 size=N/A time=00:18:20.92 bitrate=N/A speed=13.7x    frame=27716 fps=342 q=-0.0 size=N/A time=00:18:28.64 bitrate=N/A speed=13.7x    frame=27909 fps=342 q=-0.0 size=N/A time=00:18:36.36 bitrate=N/A speed=13.7x    frame=28071 fps=342 q=-0.0 size=N/A time=00:18:42.84 bitrate=N/A speed=13.7x    frame=28271 fps=342 q=-0.0 size=N/A time=00:18:50.84 bitrate=N/A speed=13.7x    frame=28426 fps=342 q=-0.0 size=N/A time=00:18:57.04 bitrate=N/A speed=13.7x    frame=28587 fps=342 q=-0.0 size=N/A time=00:19:03.48 bitrate=N/A speed=13.7x    frame=28792 fps=342 q=-0.0 size=N/A time=00:19:11.68 bitrate=N/A speed=13.7x    frame=28996 fps=343 q=-0.0 size=N/A time=00:19:19.84 bitrate=N/A speed=13.7x    frame=29172 fps=343 q=-0.0 size=N/A time=00:19:26.88 bitrate=N/A speed=13.7x    frame=29378 fps=343 q=-0.0 size=N/A time=00:19:35.12 bitrate=N/A speed=13.7x    frame=29578 fps=343 q=-0.0 size=N/A time=00:19:43.12 bitrate=N/A speed=13.7x    frame=29782 fps=344 q=-0.0 size=N/A time=00:19:51.28 bitrate=N/A speed=13.7x    frame=29984 fps=344 q=-0.0 size=N/A time=00:19:59.36 bitrate=N/A speed=13.8x    frame=30176 fps=344 q=-0.0 size=N/A time=00:20:07.04 bitrate=N/A speed=13.8x    frame=30359 fps=344 q=-0.0 size=N/A time=00:20:14.36 bitrate=N/A speed=13.8x    frame=30523 fps=344 q=-0.0 size=N/A time=00:20:20.92 bitrate=N/A speed=13.8x    frame=30708 fps=344 q=-0.0 size=N/A time=00:20:28.32 bitrate=N/A speed=13.8x    frame=30909 fps=344 q=-0.0 size=N/A time=00:20:36.36 bitrate=N/A speed=13.8x    frame=31079 fps=344 q=-0.0 size=N/A time=00:20:43.16 bitrate=N/A speed=13.8x    frame=31259 fps=344 q=-0.0 size=N/A time=00:20:50.36 bitrate=N/A speed=13.8x    frame=31440 fps=344 q=-0.0 size=N/A time=00:20:57.60 bitrate=N/A speed=13.8x    frame=31636 fps=344 q=-0.0 size=N/A time=00:21:05.44 bitrate=N/A speed=13.8x    frame=31850 fps=345 q=-0.0 size=N/A time=00:21:14.00 bitrate=N/A speed=13.8x    frame=32062 fps=345 q=-0.0 size=N/A time=00:21:22.48 bitrate=N/A speed=13.8x    frame=32213 fps=345 q=-0.0 size=N/A time=00:21:28.52 bitrate=N/A speed=13.8x    frame=32361 fps=345 q=-0.0 size=N/A time=00:21:34.44 bitrate=N/A speed=13.8x    frame=32546 fps=345 q=-0.0 size=N/A time=00:21:41.84 bitrate=N/A speed=13.8x    frame=32816 fps=346 q=-0.0 size=N/A time=00:21:52.64 bitrate=N/A speed=13.8x    [Parsed_psnr_16 @ 000002d14245e480] PSNR y:43.503368 u:47.542458 v:48.485181 average:44.552740 min:31.726090 max:inf
[out#0/null @ 000002d13839fb00] video:14210KiB audio:248040KiB subtitle:0KiB other streams:0KiB global headers:0KiB muxing overhead: unknown
frame=33071 fps=347 q=-0.0 Lsize=N/A time=00:22:02.84 bitrate=N/A speed=13.9x    
